<svg version="1" xmlns="http://www.w3.org/2000/svg" width="617.333" height="617.333" viewBox="0 0 463.000000 463.000000"><path d="M79.8 41.9c-12.4 4-21.7 12.1-27.6 24l-3.7 7.5-.3 146c-.3 163.3-.8 152.8 6.8 164.4 6.6 10.2 16.7 17.2 28.7 19.7 5 1.1 14.6 1.5 37 1.5H151l.2 23.9.3 23.9 39.1-31.2c66.5-52.8 76.6-60.7 77-60.3.2.2-2.3 9.3-5.6 20.2-3.3 11-6 20.7-6 21.7 0 1.7 2.8 1.8 57.5 1.8 38.4 0 59.2-.4 62.7-1.1 17.6-3.7 31.7-18 35.3-35.6 1.1-5.7 1.2-31.1.7-150.9l-.7-144-3.7-7.5c-6.1-12.1-15.3-20.1-27.7-23.9-6.2-2-9.9-2-150.5-1.9-136.6 0-144.4.1-149.8 1.8zm117.8 81.4c6 3.3 121.1 82.7 124.1 85.6 7.9 7.8 6.8 21.7-2.3 28.7-6.6 5.2-118.7 82-122.4 83.9-9 4.8-20.7.8-25.4-8.7l-2.6-5.2v-84.5c0-55.1.4-85.9 1-88.3 3.2-11.3 17.2-17.1 27.6-11.5z"/></svg>